<?xml version="1.0" encoding="UTF-8" standalone="no"?>
<!-- Created with Inkscape (http://www.inkscape.org/) -->

<svg
   width="64"
   height="64"
   id="svg2"
   version="1.1"
   inkscape:version="0.48.2 r9819"
   sodipodi:docname="polytech.svg"
   inkscape:export-filename="polytech.svg"
   inkscape:export-xdpi="7.7868452"
   inkscape:export-ydpi="7.7868452"
   xmlns:inkscape="http://www.inkscape.org/namespaces/inkscape"
   xmlns:sodipodi="http://sodipodi.sourceforge.net/DTD/sodipodi-0.dtd"
   xmlns="http://www.w3.org/2000/svg"
   xmlns:svg="http://www.w3.org/2000/svg"
   xmlns:rdf="http://www.w3.org/1999/02/22-rdf-syntax-ns#"
   xmlns:cc="http://creativecommons.org/ns#"
   xmlns:dc="http://purl.org/dc/elements/1.1/">
  <defs
     id="defs4" />
  <sodipodi:namedview
     id="base"
     pagecolor="#ffffff"
     bordercolor="#666666"
     borderopacity="1.0"
     inkscape:pageopacity="0.0"
     inkscape:pageshadow="2"
     inkscape:zoom="1.4"
     inkscape:cx="306.69884"
     inkscape:cy="204.51117"
     inkscape:document-units="px"
     inkscape:current-layer="g10210"
     showgrid="false"
     inkscape:window-width="1366"
     inkscape:window-height="706"
     inkscape:window-x="-8"
     inkscape:window-y="-8"
     inkscape:window-maximized="1"
     fit-margin-top="0"
     fit-margin-left="0"
     fit-margin-right="0"
     fit-margin-bottom="0"
     inkscape:showpageshadow="2"
     inkscape:pagecheckerboard="0"
     inkscape:deskcolor="#d1d1d1"
     inkscape:export-bgcolor="#ffffff00">
    <inkscape:page
       x="0"
       y="0"
       width="64"
       height="64"
       id="page2"
       margin="0"
       bleed="0" />
  </sodipodi:namedview>
  <metadata
     id="metadata7">
    <rdf:RDF>
      <cc:Work
         rdf:about="">
        <dc:format>image/svg+xml</dc:format>
        <dc:type
           rdf:resource="http://purl.org/dc/dcmitype/StillImage" />
      </cc:Work>
    </rdf:RDF>
  </metadata>
  <path
     id="path3265"
     style="fill:#00adef;fill-opacity:1;fill-rule:nonzero;stroke:none;stroke-width:0.831311"
     d="M 31.624212,0 C 16.48701,0.0031501 3.8726793,10.466902 1.01,24.360487 h 12.777915 c 0.940176,-2.651359 2.486607,-5.024868 4.493435,-6.979576 3.434372,-3.329148 8.113306,-5.369089 13.342862,-5.372372 5.230393,0.0031 9.909333,2.043224 13.342862,5.372372 3.425938,3.337344 5.525513,7.886036 5.528047,12.969092 -0.0026,5.084697 -2.102109,9.631748 -5.528047,12.970733 -3.433529,3.328328 -8.112469,5.369094 -13.342862,5.371552 -5.229556,-0.0026 -9.90849,-2.043224 -13.342862,-5.371552 -1.988274,-1.938318 -3.525433,-4.286426 -4.468979,-6.906634 l -12.7745405,-0.0031 v 0.0031 15.301629 c 0,13.044491 11.6134475,12.275722 11.6134475,12.275722 l 0.0067,-9.533396 C 17.915372,58.37321 24.48899,60.700828 31.624182,60.701646 48.871085,60.697399 62.846348,47.114584 62.849719,30.349999 62.846613,13.585418 48.871125,0.00328101 31.624227,0"
     inkscape:connector-curvature="0" />
</svg>
